<svg width="16" height="17" viewBox="0 0 16 17" fill="none" xmlns="http://www.w3.org/2000/svg">
<g clip-path="url(#clip0)">
<path fill-rule="evenodd" clip-rule="evenodd" d="M8 16.4318C8 16.4318 14 10.6166 14 6.20454C14 4.57708 13.3679 3.01627 12.2426 1.86548C11.1174 0.714688 9.5913 0.0681801 8 0.0681801C6.4087 0.0681801 4.88258 0.714688 3.75736 1.86548C2.63214 3.01627 2 4.57708 2 6.20454C2 10.6166 8 16.4318 8 16.4318ZM8 9.27273C8.79565 9.27273 9.55871 8.94947 10.1213 8.37408C10.6839 7.79868 11 7.01828 11 6.20454C11 5.39081 10.6839 4.61041 10.1213 4.03501C9.55871 3.45962 8.79565 3.13636 8 3.13636C7.20435 3.13636 6.44129 3.45962 5.87868 4.03501C5.31607 4.61041 5 5.39081 5 6.20454C5 7.01828 5.31607 7.79868 5.87868 8.37408C6.44129 8.94947 7.20435 9.27273 8 9.27273Z" fill="#E10000"/>
</g>
<defs>
<clipPath id="clip0">
<rect width="16" height="16.3636" fill="white" transform="translate(0 0.0681801)"/>
</clipPath>
</defs>
</svg>
