<svg width="16" height="17" viewBox="0 0 16 17" fill="none" xmlns="http://www.w3.org/2000/svg">
<path d="M13.6582 11.7773L10.9482 9.25728C10.8201 9.1382 10.6518 9.07469 10.4787 9.08016C10.3057 9.08563 10.1415 9.15965 10.0209 9.28659L8.42552 10.9645C8.04152 10.8895 7.26952 10.6434 6.47485 9.83273C5.68019 9.01932 5.43952 8.22773 5.36819 7.83773L7.00752 6.20546C7.1318 6.08213 7.20428 5.9142 7.20963 5.73719C7.21498 5.56018 7.15278 5.38798 7.03619 5.25705L4.57285 2.48614C4.45622 2.35479 4.29411 2.27512 4.12096 2.26404C3.94781 2.25297 3.77725 2.31136 3.64552 2.42682L2.19885 3.69568C2.0836 3.81399 2.0148 3.97145 2.00552 4.13818C1.99552 4.30864 1.80485 8.34637 4.86619 11.4786C7.53685 14.2093 10.8822 14.4091 11.8035 14.4091C11.9382 14.4091 12.0209 14.405 12.0429 14.4036C12.2059 14.3943 12.3597 14.3236 12.4749 14.2052L13.7149 12.725C13.8282 12.5907 13.8857 12.4164 13.8751 12.2393C13.8645 12.0623 13.7867 11.8964 13.6582 11.7773Z" fill="#E10000"/>
</svg>
